%TF.GenerationSoftware,KiCad,Pcbnew,8.0.9-8.0.9-0~ubuntu24.04.1*%
%TF.CreationDate,2025-07-29T22:20:07-05:00*%
%TF.ProjectId,race_computer_proto,72616365-5f63-46f6-9d70-757465725f70,1.0*%
%TF.SameCoordinates,Original*%
%TF.FileFunction,Copper,L1,Top*%
%TF.FilePolarity,Positive*%
%FSLAX46Y46*%
G04 Gerber Fmt 4.6, Leading zero omitted, Abs format (unit mm)*
G04 Created by KiCad (PCBNEW 8.0.9-8.0.9-0~ubuntu24.04.1) date 2025-07-29 22:20:07*
%MOMM*%
%LPD*%
G01*
G04 APERTURE LIST*
G04 Aperture macros list*
%AMOutline5P*
0 Free polygon, 5 corners , with rotation*
0 The origin of the aperture is its center*
0 number of corners: always 5*
0 $1 to $10 corner X, Y*
0 $11 Rotation angle, in degrees counterclockwise*
0 create outline with 5 corners*
4,1,5,$1,$2,$3,$4,$5,$6,$7,$8,$9,$10,$1,$2,$11*%
%AMOutline6P*
0 Free polygon, 6 corners , with rotation*
0 The origin of the aperture is its center*
0 number of corners: always 6*
0 $1 to $12 corner X, Y*
0 $13 Rotation angle, in degrees counterclockwise*
0 create outline with 6 corners*
4,1,6,$1,$2,$3,$4,$5,$6,$7,$8,$9,$10,$11,$12,$1,$2,$13*%
%AMOutline7P*
0 Free polygon, 7 corners , with rotation*
0 The origin of the aperture is its center*
0 number of corners: always 7*
0 $1 to $14 corner X, Y*
0 $15 Rotation angle, in degrees counterclockwise*
0 create outline with 7 corners*
4,1,7,$1,$2,$3,$4,$5,$6,$7,$8,$9,$10,$11,$12,$13,$14,$1,$2,$15*%
%AMOutline8P*
0 Free polygon, 8 corners , with rotation*
0 The origin of the aperture is its center*
0 number of corners: always 8*
0 $1 to $16 corner X, Y*
0 $17 Rotation angle, in degrees counterclockwise*
0 create outline with 8 corners*
4,1,8,$1,$2,$3,$4,$5,$6,$7,$8,$9,$10,$11,$12,$13,$14,$15,$16,$1,$2,$17*%
G04 Aperture macros list end*
%TA.AperFunction,ComponentPad*%
%ADD10Outline8P,-0.889000X0.368236X-0.368236X0.889000X0.368236X0.889000X0.889000X0.368236X0.889000X-0.368236X0.368236X-0.889000X-0.368236X-0.889000X-0.889000X-0.368236X0.000000*%
%TD*%
%TA.AperFunction,ComponentPad*%
%ADD11C,1.778000*%
%TD*%
%TA.AperFunction,ComponentPad*%
%ADD12C,3.200000*%
%TD*%
%TA.AperFunction,ComponentPad*%
%ADD13C,2.184400*%
%TD*%
%TA.AperFunction,ComponentPad*%
%ADD14C,1.879600*%
%TD*%
%TA.AperFunction,ComponentPad*%
%ADD15R,1.700000X1.700000*%
%TD*%
%TA.AperFunction,ComponentPad*%
%ADD16O,1.700000X1.700000*%
%TD*%
%TA.AperFunction,ComponentPad*%
%ADD17C,1.700000*%
%TD*%
%TA.AperFunction,ComponentPad*%
%ADD18O,1.600000X2.400000*%
%TD*%
%TA.AperFunction,ComponentPad*%
%ADD19R,1.600000X2.400000*%
%TD*%
%TA.AperFunction,ComponentPad*%
%ADD20C,1.600000*%
%TD*%
%TA.AperFunction,ViaPad*%
%ADD21C,0.762000*%
%TD*%
%TA.AperFunction,Conductor*%
%ADD22C,0.508000*%
%TD*%
G04 APERTURE END LIST*
D10*
%TO.P,U5,1,+5V*%
%TO.N,+5V*%
X219710000Y-138557000D03*
%TO.P,U5,2,+3V*%
%TO.N,unconnected-(U5-+3V-Pad2)*%
X219710000Y-136017000D03*
%TO.P,U5,3,GND*%
%TO.N,GND*%
X219710000Y-133477000D03*
%TO.P,U5,4,CLK*%
%TO.N,/GPS_SD_SCK*%
X219710000Y-130937000D03*
%TO.P,U5,5,DO*%
%TO.N,/MISO*%
X219710000Y-128397000D03*
%TO.P,U5,6,DI*%
%TO.N,/GPS_SD_MOSI*%
X219710000Y-125857000D03*
%TO.P,U5,7,CS*%
%TO.N,/SDCARD_CS*%
X219710000Y-123317000D03*
%TO.P,U5,8,CD*%
%TO.N,unconnected-(U5-CD-Pad8)*%
X219710000Y-120777000D03*
%TD*%
D11*
%TO.P,U6,1,VDD*%
%TO.N,unconnected-(U6-VDD-Pad1)*%
X244602000Y-55880000D03*
%TO.P,U6,2,GND*%
%TO.N,GND*%
X244602000Y-53340000D03*
%TO.P,U6,3,NEO_IN*%
%TO.N,unconnected-(U6-NEO_IN-Pad3)*%
X244602000Y-50800000D03*
%TO.P,U6,4,S+*%
%TO.N,unconnected-(U6-S+-Pad4)*%
X244602000Y-48260000D03*
%TO.P,U6,5,S-*%
%TO.N,unconnected-(U6-S--Pad5)*%
X244602000Y-45720000D03*
%TO.P,U6,6,C*%
%TO.N,GND*%
X226822000Y-45720000D03*
%TO.P,U6,7,A*%
%TO.N,Net-(U1-14_A0_TX3_SPDIF_OUT)*%
X226822000Y-48260000D03*
%TO.P,U6,8,NEO_OUT*%
%TO.N,Net-(U1-15_A1_RX3_SPDIF_IN)*%
X226822000Y-50800000D03*
%TO.P,U6,9,GND*%
%TO.N,unconnected-(U6-GND-Pad9)*%
X226822000Y-53340000D03*
%TO.P,U6,10,VDD*%
%TO.N,+5V*%
X226822000Y-55880000D03*
%TD*%
D12*
%TO.P,U4,*%
%TO.N,*%
X247777000Y-80413000D03*
X225044000Y-80286000D03*
X247777000Y-65173000D03*
X225044000Y-65046000D03*
D13*
%TO.P,U4,1,+5V*%
%TO.N,+5V*%
X226314000Y-70866000D03*
%TO.P,U4,2,GND*%
%TO.N,GND*%
X226314000Y-74366000D03*
%TD*%
D14*
%TO.P,U2,15,GND*%
%TO.N,GND*%
X190500000Y-77495400D03*
%TO.P,U2,14,5V*%
%TO.N,+5V*%
X187960000Y-77495400D03*
%TO.P,U2,13,3V3*%
%TO.N,unconnected-(U2-3V3-Pad13)*%
X185420000Y-77495400D03*
%TO.P,U2,12,CS*%
%TO.N,Net-(U1-17_A3_TX4_SDA1)*%
X182880000Y-77495400D03*
%TO.P,U2,11,RX/MOSI*%
%TO.N,/GPS_SD_MOSI*%
X180340000Y-77495400D03*
%TO.P,U2,10,TX/MISO*%
%TO.N,/MISO*%
X177800000Y-77495400D03*
%TO.P,U2,9,SCK*%
%TO.N,/GPS_SD_SCK*%
X175260000Y-77495400D03*
%TO.P,U2,8,SCL*%
%TO.N,unconnected-(U2-SCL-Pad8)*%
X177800000Y-107950000D03*
%TO.P,U2,7,SDA*%
%TO.N,unconnected-(U2-SDA-Pad7)*%
X180340000Y-107950000D03*
%TO.P,U2,6,3V3*%
%TO.N,unconnected-(U2-3V3-Pad6)*%
X182880000Y-107950000D03*
%TO.P,U2,5,GND*%
%TO.N,GND*%
X185420000Y-107950000D03*
%TO.P,U2,4,INT*%
%TO.N,/GPS_INT*%
X187960000Y-107950000D03*
%TO.P,U2,3,SAFE*%
%TO.N,unconnected-(U2-SAFE-Pad3)*%
X190500000Y-107950000D03*
%TO.P,U2,2,RST*%
%TO.N,/GPS_RST*%
X193040000Y-107950000D03*
%TO.P,U2,1,PPS*%
%TO.N,Net-(U1-0_RX1_CRX2_CS1)*%
X195580000Y-107950000D03*
%TD*%
D11*
%TO.P,OD3,16,CS*%
%TO.N,/DISP_BUS.CS2*%
X160200000Y-142728000D03*
%TO.P,OD3,15,RESET*%
%TO.N,/DISP_BUS.RESET2*%
X160200000Y-140188000D03*
%TO.P,OD3,14,D/C*%
%TO.N,/DISP_BUS.DC*%
X162740000Y-142728000D03*
%TO.P,OD3,13,R/W*%
%TO.N,GND*%
X162740000Y-140188000D03*
%TO.P,OD3,12,E/RD*%
X165280000Y-142728000D03*
%TO.P,OD3,11,D7*%
%TO.N,unconnected-(OD3-D7-Pad11)*%
X165280000Y-140188000D03*
%TO.P,OD3,10,D6*%
%TO.N,unconnected-(OD3-D6-Pad10)*%
X167820000Y-142728000D03*
%TO.P,OD3,9,D5*%
%TO.N,unconnected-(OD3-D5-Pad9)*%
X167820000Y-140188000D03*
%TO.P,OD3,8,D4*%
%TO.N,unconnected-(OD3-D4-Pad8)*%
X170360000Y-142728000D03*
%TO.P,OD3,7,D3*%
%TO.N,unconnected-(OD3-D3-Pad7)*%
X170360000Y-140188000D03*
%TO.P,OD3,6,D2/NC*%
%TO.N,unconnected-(OD3-D2{slash}NC-Pad6)*%
X172900000Y-142728000D03*
%TO.P,OD3,5,D1/SDIN*%
%TO.N,/DISP_BUS.MOSI1*%
X172900000Y-140188000D03*
%TO.P,OD3,4,D0/SCK*%
%TO.N,/DISP_BUS.SCK1*%
X175440000Y-142728000D03*
%TO.P,OD3,3,N/C*%
%TO.N,unconnected-(OD3-N{slash}C-Pad3)*%
X175450000Y-140188000D03*
%TO.P,OD3,2,VCC*%
%TO.N,+5V*%
X177980000Y-142728000D03*
%TO.P,OD3,1,GND*%
%TO.N,GND*%
X177980000Y-140188000D03*
%TD*%
%TO.P,OD1,16,CS*%
%TO.N,/DISP_BUS.CS0*%
X89080000Y-142728000D03*
%TO.P,OD1,15,RESET*%
%TO.N,/DISP_BUS.RESET0*%
X89080000Y-140188000D03*
%TO.P,OD1,14,D/C*%
%TO.N,/DISP_BUS.DC*%
X91620000Y-142728000D03*
%TO.P,OD1,13,R/W*%
%TO.N,GND*%
X91620000Y-140188000D03*
%TO.P,OD1,12,E/RD*%
X94160000Y-142728000D03*
%TO.P,OD1,11,D7*%
%TO.N,unconnected-(OD1-D7-Pad11)*%
X94160000Y-140188000D03*
%TO.P,OD1,10,D6*%
%TO.N,unconnected-(OD1-D6-Pad10)*%
X96700000Y-142728000D03*
%TO.P,OD1,9,D5*%
%TO.N,unconnected-(OD1-D5-Pad9)*%
X96700000Y-140188000D03*
%TO.P,OD1,8,D4*%
%TO.N,unconnected-(OD1-D4-Pad8)*%
X99240000Y-142728000D03*
%TO.P,OD1,7,D3*%
%TO.N,unconnected-(OD1-D3-Pad7)*%
X99240000Y-140188000D03*
%TO.P,OD1,6,D2/NC*%
%TO.N,unconnected-(OD1-D2{slash}NC-Pad6)*%
X101780000Y-142728000D03*
%TO.P,OD1,5,D1/SDIN*%
%TO.N,/DISP_BUS.MOSI0*%
X101780000Y-140188000D03*
%TO.P,OD1,4,D0/SCK*%
%TO.N,/DISP_BUS.SCK0*%
X104320000Y-142728000D03*
%TO.P,OD1,3,N/C*%
%TO.N,unconnected-(OD1-N{slash}C-Pad3)*%
X104330000Y-140188000D03*
%TO.P,OD1,2,VCC*%
%TO.N,+5V*%
X106860000Y-142728000D03*
%TO.P,OD1,1,GND*%
%TO.N,GND*%
X106860000Y-140188000D03*
%TD*%
%TO.P,OD4,16,CS*%
%TO.N,/DISP_BUS.CS3*%
X195820000Y-142728000D03*
%TO.P,OD4,15,RESET*%
%TO.N,/DISP_BUS.RESET3*%
X195820000Y-140188000D03*
%TO.P,OD4,14,D/C*%
%TO.N,/DISP_BUS.DC*%
X198360000Y-142728000D03*
%TO.P,OD4,13,R/W*%
%TO.N,GND*%
X198360000Y-140188000D03*
%TO.P,OD4,12,E/RD*%
X200900000Y-142728000D03*
%TO.P,OD4,11,D7*%
%TO.N,unconnected-(OD4-D7-Pad11)*%
X200900000Y-140188000D03*
%TO.P,OD4,10,D6*%
%TO.N,unconnected-(OD4-D6-Pad10)*%
X203440000Y-142728000D03*
%TO.P,OD4,9,D5*%
%TO.N,unconnected-(OD4-D5-Pad9)*%
X203440000Y-140188000D03*
%TO.P,OD4,8,D4*%
%TO.N,unconnected-(OD4-D4-Pad8)*%
X205980000Y-142728000D03*
%TO.P,OD4,7,D3*%
%TO.N,unconnected-(OD4-D3-Pad7)*%
X205980000Y-140188000D03*
%TO.P,OD4,6,D2/NC*%
%TO.N,unconnected-(OD4-D2{slash}NC-Pad6)*%
X208520000Y-142728000D03*
%TO.P,OD4,5,D1/SDIN*%
%TO.N,/DISP_BUS.MOSI1*%
X208520000Y-140188000D03*
%TO.P,OD4,4,D0/SCK*%
%TO.N,/DISP_BUS.SCK1*%
X211060000Y-142728000D03*
%TO.P,OD4,3,N/C*%
%TO.N,unconnected-(OD4-N{slash}C-Pad3)*%
X211070000Y-140188000D03*
%TO.P,OD4,2,VCC*%
%TO.N,+5V*%
X213600000Y-142728000D03*
%TO.P,OD4,1,GND*%
%TO.N,GND*%
X213600000Y-140188000D03*
%TD*%
D15*
%TO.P,LED1,1,VCC*%
%TO.N,+5V*%
X60960000Y-127635000D03*
D16*
%TO.P,LED1,2,GND*%
%TO.N,GND*%
X63500000Y-127635000D03*
%TO.P,LED1,3,DIN*%
%TO.N,/DISP_BUS.MOSI2*%
X66040000Y-127635000D03*
%TO.P,LED1,4,CS*%
%TO.N,/DISP_BUS.CS4*%
X68580000Y-127635000D03*
%TO.P,LED1,5,CLK*%
%TO.N,/DISP_BUS.SCK2*%
X71120000Y-127635000D03*
%TO.P,LED1,6,CLK*%
%TO.N,unconnected-(LED1-CLK-Pad6)*%
X71060000Y-60385000D03*
%TO.P,LED1,7,CS*%
%TO.N,unconnected-(LED1-CS-Pad7)*%
X68520000Y-60385000D03*
%TO.P,LED1,8,DOUT*%
%TO.N,unconnected-(LED1-DOUT-Pad8)*%
X65980000Y-60385000D03*
%TO.P,LED1,9,GND*%
%TO.N,unconnected-(LED1-GND-Pad9)*%
X63440000Y-60385000D03*
D17*
%TO.P,LED1,10,VCC*%
%TO.N,unconnected-(LED1-VCC-Pad10)*%
X60900000Y-60385000D03*
%TD*%
D11*
%TO.P,OD2,16,CS*%
%TO.N,/DISP_BUS.CS1*%
X124700000Y-142728000D03*
%TO.P,OD2,15,RESET*%
%TO.N,/DISP_BUS.RESET1*%
X124700000Y-140188000D03*
%TO.P,OD2,14,D/C*%
%TO.N,/DISP_BUS.DC*%
X127240000Y-142728000D03*
%TO.P,OD2,13,R/W*%
%TO.N,GND*%
X127240000Y-140188000D03*
%TO.P,OD2,12,E/RD*%
X129780000Y-142728000D03*
%TO.P,OD2,11,D7*%
%TO.N,unconnected-(OD2-D7-Pad11)*%
X129780000Y-140188000D03*
%TO.P,OD2,10,D6*%
%TO.N,unconnected-(OD2-D6-Pad10)*%
X132320000Y-142728000D03*
%TO.P,OD2,9,D5*%
%TO.N,unconnected-(OD2-D5-Pad9)*%
X132320000Y-140188000D03*
%TO.P,OD2,8,D4*%
%TO.N,unconnected-(OD2-D4-Pad8)*%
X134860000Y-142728000D03*
%TO.P,OD2,7,D3*%
%TO.N,unconnected-(OD2-D3-Pad7)*%
X134860000Y-140188000D03*
%TO.P,OD2,6,D2/NC*%
%TO.N,unconnected-(OD2-D2{slash}NC-Pad6)*%
X137400000Y-142728000D03*
%TO.P,OD2,5,D1/SDIN*%
%TO.N,/DISP_BUS.MOSI0*%
X137400000Y-140188000D03*
%TO.P,OD2,4,D0/SCK*%
%TO.N,/DISP_BUS.SCK0*%
X139940000Y-142728000D03*
%TO.P,OD2,3,N/C*%
%TO.N,unconnected-(OD2-N{slash}C-Pad3)*%
X139950000Y-140188000D03*
%TO.P,OD2,2,VCC*%
%TO.N,+5V*%
X142480000Y-142728000D03*
%TO.P,OD2,1,GND*%
%TO.N,GND*%
X142480000Y-140188000D03*
%TD*%
D18*
%TO.P,U3,20,VCC*%
%TO.N,/3V3*%
X78745000Y-95260000D03*
%TO.P,U3,19,~{OE}*%
%TO.N,GND*%
X81285000Y-95260000D03*
%TO.P,U3,18,B1*%
%TO.N,/DISP_BUS.MOSI2*%
X83825000Y-95260000D03*
%TO.P,U3,17,B2*%
%TO.N,/GPS_SD_MOSI*%
X86365000Y-95260000D03*
%TO.P,U3,16,B3*%
%TO.N,/DISP_BUS.SCK2*%
X88905000Y-95260000D03*
%TO.P,U3,15,B4*%
%TO.N,/DISP_BUS.SCK0*%
X91445000Y-95260000D03*
%TO.P,U3,14,B5*%
%TO.N,/DISP_BUS.MOSI0*%
X93985000Y-95260000D03*
%TO.P,U3,13,B6*%
%TO.N,/DISP_BUS.SCK1*%
X96525000Y-95260000D03*
%TO.P,U3,12,B7*%
%TO.N,/DISP_BUS.MOSI1*%
X99065000Y-95260000D03*
%TO.P,U3,11,B8*%
%TO.N,/GPS_SD_SCK*%
X101605000Y-95260000D03*
%TO.P,U3,10,GND*%
%TO.N,GND*%
X101605000Y-87640000D03*
%TO.P,U3,9,A8*%
%TO.N,/SCK*%
X99065000Y-87640000D03*
%TO.P,U3,8,A7*%
%TO.N,/MOSI*%
X96525000Y-87640000D03*
%TO.P,U3,7,A6*%
%TO.N,/SCK*%
X93985000Y-87640000D03*
%TO.P,U3,6,A5*%
%TO.N,/MOSI*%
X91445000Y-87640000D03*
%TO.P,U3,5,A4*%
%TO.N,/SCK*%
X88905000Y-87640000D03*
%TO.P,U3,4,A3*%
X86365000Y-87640000D03*
%TO.P,U3,3,A2*%
%TO.N,/MOSI*%
X83825000Y-87640000D03*
%TO.P,U3,2,A1*%
X81285000Y-87640000D03*
D19*
%TO.P,U3,1,DIR*%
%TO.N,/3V3*%
X78745000Y-87640000D03*
%TD*%
D20*
%TO.P,U1,33,VIN*%
%TO.N,+5V*%
X146050000Y-85090000D03*
%TO.P,U1,32,GND*%
%TO.N,GND*%
X143510000Y-85090000D03*
%TO.P,U1,31,3V3*%
%TO.N,/3V3*%
X140970000Y-85090000D03*
%TO.P,U1,30,23_A9_CRX1_MCLK1*%
%TO.N,/GPS_RST*%
X138430000Y-85090000D03*
%TO.P,U1,29,22_A8_CTX1*%
%TO.N,unconnected-(U1-22_A8_CTX1-Pad29)*%
X135890000Y-85090000D03*
%TO.P,U1,28,21_A7_RX5_BCLK1*%
%TO.N,unconnected-(U1-21_A7_RX5_BCLK1-Pad28)*%
X133350000Y-85090000D03*
%TO.P,U1,27,20_A6_TX5_LRCLK1*%
%TO.N,/GPS_INT*%
X130810000Y-85090000D03*
%TO.P,U1,26,19_A5_SCL0*%
%TO.N,/SCL*%
X128270000Y-85090000D03*
%TO.P,U1,25,18_A4_SDA0*%
%TO.N,/SDA*%
X125730000Y-85090000D03*
%TO.P,U1,24,17_A3_TX4_SDA1*%
%TO.N,Net-(U1-17_A3_TX4_SDA1)*%
X123190000Y-85090000D03*
%TO.P,U1,23,16_A2_RX4_SCL1*%
%TO.N,/DISP_BUS.DC*%
X120650000Y-85090000D03*
%TO.P,U1,22,15_A1_RX3_SPDIF_IN*%
%TO.N,Net-(U1-15_A1_RX3_SPDIF_IN)*%
X118110000Y-85090000D03*
%TO.P,U1,21,14_A0_TX3_SPDIF_OUT*%
%TO.N,Net-(U1-14_A0_TX3_SPDIF_OUT)*%
X115570000Y-85090000D03*
%TO.P,U1,20,13_SCK_CRX1_LED*%
%TO.N,/SCK*%
X113030000Y-85090000D03*
%TO.P,U1,14,12_MISO_MQSL*%
%TO.N,/MISO*%
X113030000Y-100330000D03*
%TO.P,U1,13,11_MOSI_CTX1*%
%TO.N,/MOSI*%
X115570000Y-100330000D03*
%TO.P,U1,12,10_CS_MQSR*%
%TO.N,/DISP_BUS.CS0*%
X118110000Y-100330000D03*
%TO.P,U1,11,9_OUT1C*%
%TO.N,/DISP_BUS.RESET0*%
X120650000Y-100330000D03*
%TO.P,U1,10,8_TX2_IN1*%
%TO.N,/DISP_BUS.CS1*%
X123190000Y-100330000D03*
%TO.P,U1,9,7_RX2_OUT1A*%
%TO.N,/DISP_BUS.RESET1*%
X125730000Y-100330000D03*
%TO.P,U1,8,6_OUT1D*%
%TO.N,/DISP_BUS.CS2*%
X128270000Y-100330000D03*
%TO.P,U1,7,5_IN2*%
%TO.N,/DISP_BUS.RESET2*%
X130810000Y-100330000D03*
%TO.P,U1,6,4_BCLK2*%
%TO.N,/DISP_BUS.CS3*%
X133350000Y-100330000D03*
%TO.P,U1,5,3_LRCLK2*%
%TO.N,/DISP_BUS.RESET3*%
X135890000Y-100330000D03*
%TO.P,U1,4,2_OUT2*%
%TO.N,/SDCARD_CS*%
X138430000Y-100330000D03*
%TO.P,U1,3,1_TX1_CTX2_MISO1*%
%TO.N,/NEOKEY_INT*%
X140970000Y-100330000D03*
%TO.P,U1,2,0_RX1_CRX2_CS1*%
%TO.N,Net-(U1-0_RX1_CRX2_CS1)*%
X143510000Y-100330000D03*
%TO.P,U1,1,GND*%
%TO.N,GND*%
X146050000Y-100330000D03*
%TD*%
D11*
%TO.P,U7,*%
%TO.N,*%
X244475000Y-114300000D03*
%TO.P,U7,6,INT*%
%TO.N,/NEOKEY_INT*%
X226695000Y-114300000D03*
%TO.P,U7,*%
%TO.N,*%
X244475000Y-111760000D03*
%TO.P,U7,5,DATA*%
%TO.N,/SDA*%
X226695000Y-111760000D03*
%TO.P,U7,*%
%TO.N,*%
X244475000Y-109220000D03*
%TO.P,U7,4,CLK*%
%TO.N,/SCL*%
X226695000Y-109220000D03*
%TO.P,U7,*%
%TO.N,*%
X244475000Y-106680000D03*
%TO.P,U7,3,GND*%
%TO.N,GND*%
X226695000Y-106680000D03*
%TO.P,U7,*%
%TO.N,*%
X244475000Y-104140000D03*
%TO.P,U7,2,3V*%
%TO.N,unconnected-(U7-3V-Pad2)*%
X226695000Y-104140000D03*
%TO.P,U7,*%
%TO.N,*%
X244475000Y-101600000D03*
%TO.P,U7,1,VIN*%
%TO.N,+5V*%
X226695000Y-101600000D03*
D12*
%TO.P,U7,*%
%TO.N,*%
X243840000Y-88900000D03*
X243840000Y-88900000D03*
X227330000Y-88900000D03*
X227330000Y-88900000D03*
X227330000Y-88900000D03*
X243840000Y-127000000D03*
X243840000Y-127000000D03*
X227330000Y-127000000D03*
X227330000Y-127000000D03*
%TD*%
D21*
%TO.N,/MISO*%
X138430000Y-90170000D03*
%TD*%
D22*
%TO.N,/MISO*%
X138430000Y-90170000D02*
X165125400Y-90170000D01*
X165125400Y-90170000D02*
X177800000Y-77495400D01*
%TO.N,/MOSI*%
X83825000Y-87640000D02*
X81285000Y-87640000D01*
X91445000Y-87640000D02*
X89791000Y-89294000D01*
X89791000Y-89294000D02*
X85479000Y-89294000D01*
X85479000Y-89294000D02*
X83825000Y-87640000D01*
X96525000Y-87640000D02*
X94871000Y-89294000D01*
X94871000Y-89294000D02*
X93099000Y-89294000D01*
X93099000Y-89294000D02*
X91445000Y-87640000D01*
%TO.N,/SCK*%
X88905000Y-87640000D02*
X86365000Y-87640000D01*
X93985000Y-87640000D02*
X92331000Y-85986000D01*
X92331000Y-85986000D02*
X90559000Y-85986000D01*
X90559000Y-85986000D02*
X88905000Y-87640000D01*
X99065000Y-87640000D02*
X97411000Y-85986000D01*
X97411000Y-85986000D02*
X95639000Y-85986000D01*
X95639000Y-85986000D02*
X93985000Y-87640000D01*
%TO.N,/DISP_BUS.MOSI0*%
X93985000Y-95260000D02*
X93985000Y-132393000D01*
X93985000Y-132393000D02*
X101780000Y-140188000D01*
%TO.N,/DISP_BUS.SCK2*%
X71120000Y-127635000D02*
X71120000Y-113411576D01*
X71120000Y-113411576D02*
X88905000Y-95626576D01*
X88905000Y-95626576D02*
X88905000Y-95260000D01*
%TO.N,/DISP_BUS.SCK0*%
X85764000Y-103481000D02*
X91445000Y-97800000D01*
X91445000Y-97800000D02*
X91445000Y-95260000D01*
%TO.N,/DISP_BUS.MOSI1*%
X99065000Y-95260000D02*
X99070000Y-95260000D01*
X99070000Y-95260000D02*
X105410000Y-101600000D01*
X105410000Y-101600000D02*
X105410000Y-105410000D01*
%TO.N,Net-(U1-15_A1_RX3_SPDIF_IN)*%
X207010000Y-67310000D02*
X223520000Y-50800000D01*
X118110000Y-78740000D02*
X129540000Y-67310000D01*
X118110000Y-85090000D02*
X118110000Y-78740000D01*
X129540000Y-67310000D02*
X207010000Y-67310000D01*
X223520000Y-50800000D02*
X226822000Y-50800000D01*
%TO.N,Net-(U1-14_A0_TX3_SPDIF_OUT)*%
X129540000Y-64770000D02*
X205740000Y-64770000D01*
X222250000Y-48260000D02*
X226822000Y-48260000D01*
X115570000Y-85090000D02*
X115570000Y-78740000D01*
X115570000Y-78740000D02*
X129540000Y-64770000D01*
X205740000Y-64770000D02*
X222250000Y-48260000D01*
%TO.N,Net-(U1-17_A3_TX4_SDA1)*%
X123190000Y-85090000D02*
X133350000Y-74930000D01*
X133350000Y-74930000D02*
X180314600Y-74930000D01*
X180314600Y-74930000D02*
X182880000Y-77495400D01*
%TO.N,Net-(U1-0_RX1_CRX2_CS1)*%
X154940000Y-111760000D02*
X194310000Y-111760000D01*
X143510000Y-100330000D02*
X154940000Y-111760000D01*
X194310000Y-111760000D02*
X195580000Y-110490000D01*
X195580000Y-110490000D02*
X195580000Y-107950000D01*
%TO.N,/NEOKEY_INT*%
X140970000Y-100330000D02*
X154940000Y-114300000D01*
X154940000Y-114300000D02*
X226695000Y-114300000D01*
%TO.N,/SDCARD_CS*%
X138430000Y-100330000D02*
X161417000Y-123317000D01*
X161417000Y-123317000D02*
X219710000Y-123317000D01*
%TO.N,/DISP_BUS.RESET3*%
X135890000Y-100330000D02*
X135890000Y-102870000D01*
X180092000Y-124460000D02*
X195820000Y-140188000D01*
X135890000Y-102870000D02*
X157480000Y-124460000D01*
X157480000Y-124460000D02*
X180092000Y-124460000D01*
%TO.N,/DISP_BUS.CS3*%
X133350000Y-100330000D02*
X133350000Y-102870000D01*
X133350000Y-102870000D02*
X156210000Y-125730000D01*
X156210000Y-125730000D02*
X178822000Y-125730000D01*
X178822000Y-125730000D02*
X195820000Y-142728000D01*
X133350000Y-100330000D02*
X134043264Y-100330000D01*
%TO.N,/DISP_BUS.MOSI1*%
X105410000Y-105410000D02*
X128270000Y-128270000D01*
X128270000Y-128270000D02*
X160982000Y-128270000D01*
X160982000Y-128270000D02*
X172900000Y-140188000D01*
%TO.N,/MOSI*%
X105410000Y-90170000D02*
X99055000Y-90170000D01*
X99055000Y-90170000D02*
X96525000Y-87640000D01*
%TO.N,/SCK*%
X99065000Y-87640000D02*
X99065000Y-87635000D01*
%TO.N,/SDA*%
X200660000Y-93980000D02*
X134620000Y-93980000D01*
X200660000Y-93980000D02*
X218440000Y-111760000D01*
X125730000Y-85090000D02*
X134620000Y-93980000D01*
X218708736Y-111760000D02*
X226695000Y-111760000D01*
%TO.N,/SCL*%
X135890000Y-92710000D02*
X200660000Y-92710000D01*
X128270000Y-85090000D02*
X135890000Y-92710000D01*
X200660000Y-92710000D02*
X217170000Y-109220000D01*
X217170000Y-109220000D02*
X226695000Y-109220000D01*
%TO.N,/DISP_BUS.MOSI0*%
X137400000Y-140188000D02*
X136057000Y-138845000D01*
X136057000Y-138845000D02*
X103123000Y-138845000D01*
X103123000Y-138845000D02*
X101780000Y-140188000D01*
%TO.N,/3V3*%
X78745000Y-95260000D02*
X78745000Y-87640000D01*
%TO.N,/DISP_BUS.MOSI2*%
X83825000Y-95260000D02*
X66040000Y-113045000D01*
X66040000Y-113045000D02*
X66040000Y-127635000D01*
%TO.N,/DISP_BUS.SCK1*%
X175440000Y-142728000D02*
X177492000Y-144780000D01*
X177492000Y-144780000D02*
X209008000Y-144780000D01*
X209008000Y-144780000D02*
X211060000Y-142728000D01*
X151130000Y-143510000D02*
X152400000Y-144780000D01*
X140845705Y-130810000D02*
X151130000Y-141094295D01*
X123190000Y-130810000D02*
X140845705Y-130810000D01*
X102695000Y-101430000D02*
X102695000Y-110315000D01*
X151130000Y-141094295D02*
X151130000Y-143510000D01*
X96525000Y-95260000D02*
X102695000Y-101430000D01*
X102695000Y-110315000D02*
X123190000Y-130810000D01*
X152400000Y-144780000D02*
X173388000Y-144780000D01*
X173388000Y-144780000D02*
X175440000Y-142728000D01*
%TO.N,/DISP_BUS.SCK0*%
X85764000Y-103481000D02*
X85764000Y-141311289D01*
X85764000Y-141311289D02*
X89232711Y-144780000D01*
X104320000Y-142728000D02*
X106372000Y-144780000D01*
X106372000Y-144780000D02*
X137888000Y-144780000D01*
X89232711Y-144780000D02*
X102268000Y-144780000D01*
X137888000Y-144780000D02*
X139940000Y-142728000D01*
X102268000Y-144780000D02*
X104320000Y-142728000D01*
%TO.N,/SCK*%
X101615000Y-85090000D02*
X99065000Y-87640000D01*
X113030000Y-85090000D02*
X101615000Y-85090000D01*
%TO.N,/MOSI*%
X115570000Y-100330000D02*
X105410000Y-90170000D01*
%TD*%
M02*
