%TF.GenerationSoftware,KiCad,Pcbnew,8.0.9-8.0.9-0~ubuntu24.04.1*%
%TF.CreationDate,2025-07-29T22:20:07-05:00*%
%TF.ProjectId,race_computer_proto,72616365-5f63-46f6-9d70-757465725f70,1.0*%
%TF.SameCoordinates,Original*%
%TF.FileFunction,Soldermask,Top*%
%TF.FilePolarity,Negative*%
%FSLAX46Y46*%
G04 Gerber Fmt 4.6, Leading zero omitted, Abs format (unit mm)*
G04 Created by KiCad (PCBNEW 8.0.9-8.0.9-0~ubuntu24.04.1) date 2025-07-29 22:20:07*
%MOMM*%
%LPD*%
G01*
G04 APERTURE LIST*
G04 Aperture macros list*
%AMFreePoly0*
4,1,25,0.427955,0.971196,0.440078,0.960842,0.960842,0.440078,0.989349,0.384130,0.990600,0.368236,0.990600,-0.368236,0.971196,-0.427955,0.960842,-0.440078,0.440078,-0.960842,0.384130,-0.989349,0.368236,-0.990600,-0.368236,-0.990600,-0.427955,-0.971196,-0.440078,-0.960842,-0.960842,-0.440078,-0.989349,-0.384130,-0.990600,-0.368236,-0.990600,0.368236,-0.971196,0.427955,-0.960842,0.440078,
-0.440078,0.960842,-0.384130,0.989349,-0.368236,0.990600,0.368236,0.990600,0.427955,0.971196,0.427955,0.971196,$1*%
G04 Aperture macros list end*
%ADD10C,2.200000*%
%ADD11FreePoly0,0.000000*%
%ADD12C,2.540000*%
%ADD13C,1.879600*%
%ADD14C,3.301600*%
%ADD15C,2.286000*%
%ADD16C,3.200000*%
%ADD17C,2.082800*%
%ADD18C,3.302000*%
%ADD19C,1.778000*%
%ADD20C,3.000000*%
%ADD21R,1.700000X1.700000*%
%ADD22O,1.700000X1.700000*%
%ADD23C,1.700000*%
%ADD24O,1.600000X2.400000*%
%ADD25R,1.600000X2.400000*%
%ADD26C,1.600000*%
G04 APERTURE END LIST*
D10*
%TO.C,U5*%
X247650000Y-119380000D03*
X247650000Y-139700000D03*
X227330000Y-119380000D03*
X227330000Y-139700000D03*
D11*
X219710000Y-138557000D03*
X219710000Y-136017000D03*
X219710000Y-133477000D03*
X219710000Y-130937000D03*
X219710000Y-128397000D03*
X219710000Y-125857000D03*
X219710000Y-123317000D03*
X219710000Y-120777000D03*
%TD*%
D12*
%TO.C,U6*%
X229997000Y-58420000D03*
X241427000Y-43180000D03*
D13*
X244602000Y-55880000D03*
X244602000Y-53340000D03*
X244602000Y-50800000D03*
X244602000Y-48260000D03*
X244602000Y-45720000D03*
X226822000Y-45720000D03*
X226822000Y-48260000D03*
X226822000Y-50800000D03*
X226822000Y-53340000D03*
X226822000Y-55880000D03*
%TD*%
D14*
%TO.C,U4*%
X247777000Y-80413000D03*
X225044000Y-80286000D03*
X247777000Y-65173000D03*
X225044000Y-65046000D03*
D15*
X226314000Y-70866000D03*
X226314000Y-74366000D03*
%TD*%
D16*
%TO.C,REF\u002A\u002A*%
X54610000Y-35560000D03*
%TD*%
%TO.C,REF\u002A\u002A*%
X54610000Y-151130000D03*
%TD*%
%TO.C,REF\u002A\u002A*%
X245110000Y-151130000D03*
%TD*%
%TO.C,REF\u002A\u002A*%
X245110000Y-35560000D03*
%TD*%
D17*
%TO.C,U2*%
X190500000Y-77495400D03*
X187960000Y-77495400D03*
X185420000Y-77495400D03*
X182880000Y-77495400D03*
X180340000Y-77495400D03*
X177800000Y-77495400D03*
X175260000Y-77495400D03*
X177800000Y-107950000D03*
X180340000Y-107950000D03*
X182880000Y-107950000D03*
X185420000Y-107950000D03*
X187960000Y-107950000D03*
X190500000Y-107950000D03*
X193040000Y-107950000D03*
X195580000Y-107950000D03*
D18*
X171450000Y-106680000D03*
X171450000Y-78765400D03*
X207010000Y-106680000D03*
X207010000Y-78765400D03*
%TD*%
D19*
%TO.C,OD3*%
X160200000Y-142728000D03*
X160200000Y-140188000D03*
X162740000Y-142728000D03*
X162740000Y-140188000D03*
X165280000Y-142728000D03*
X165280000Y-140188000D03*
X167820000Y-142728000D03*
X167820000Y-140188000D03*
X170360000Y-142728000D03*
X170360000Y-140188000D03*
X172900000Y-142728000D03*
X172900000Y-140188000D03*
X175440000Y-142728000D03*
X175450000Y-140188000D03*
X177980000Y-142728000D03*
X177980000Y-140188000D03*
D20*
X182880000Y-46228000D03*
X154880000Y-46228000D03*
X182880000Y-142228000D03*
X154880000Y-142228000D03*
%TD*%
D19*
%TO.C,OD1*%
X89080000Y-142728000D03*
X89080000Y-140188000D03*
X91620000Y-142728000D03*
X91620000Y-140188000D03*
X94160000Y-142728000D03*
X94160000Y-140188000D03*
X96700000Y-142728000D03*
X96700000Y-140188000D03*
X99240000Y-142728000D03*
X99240000Y-140188000D03*
X101780000Y-142728000D03*
X101780000Y-140188000D03*
X104320000Y-142728000D03*
X104330000Y-140188000D03*
X106860000Y-142728000D03*
X106860000Y-140188000D03*
D20*
X111760000Y-46228000D03*
X83760000Y-46228000D03*
X111760000Y-142228000D03*
X83760000Y-142228000D03*
%TD*%
D19*
%TO.C,OD4*%
X195820000Y-142728000D03*
X195820000Y-140188000D03*
X198360000Y-142728000D03*
X198360000Y-140188000D03*
X200900000Y-142728000D03*
X200900000Y-140188000D03*
X203440000Y-142728000D03*
X203440000Y-140188000D03*
X205980000Y-142728000D03*
X205980000Y-140188000D03*
X208520000Y-142728000D03*
X208520000Y-140188000D03*
X211060000Y-142728000D03*
X211070000Y-140188000D03*
X213600000Y-142728000D03*
X213600000Y-140188000D03*
D20*
X218500000Y-46228000D03*
X190500000Y-46228000D03*
X218500000Y-142228000D03*
X190500000Y-142228000D03*
%TD*%
D21*
%TO.C,LED1*%
X60960000Y-127635000D03*
D22*
X63500000Y-127635000D03*
X66040000Y-127635000D03*
X68580000Y-127635000D03*
X71120000Y-127635000D03*
X71060000Y-60385000D03*
X68520000Y-60385000D03*
X65980000Y-60385000D03*
X63440000Y-60385000D03*
D23*
X60900000Y-60385000D03*
%TD*%
D19*
%TO.C,OD2*%
X124700000Y-142728000D03*
X124700000Y-140188000D03*
X127240000Y-142728000D03*
X127240000Y-140188000D03*
X129780000Y-142728000D03*
X129780000Y-140188000D03*
X132320000Y-142728000D03*
X132320000Y-140188000D03*
X134860000Y-142728000D03*
X134860000Y-140188000D03*
X137400000Y-142728000D03*
X137400000Y-140188000D03*
X139940000Y-142728000D03*
X139950000Y-140188000D03*
X142480000Y-142728000D03*
X142480000Y-140188000D03*
D20*
X147380000Y-46228000D03*
X119380000Y-46228000D03*
X147380000Y-142228000D03*
X119380000Y-142228000D03*
%TD*%
D24*
%TO.C,U3*%
X78745000Y-95260000D03*
X81285000Y-95260000D03*
X83825000Y-95260000D03*
X86365000Y-95260000D03*
X88905000Y-95260000D03*
X91445000Y-95260000D03*
X93985000Y-95260000D03*
X96525000Y-95260000D03*
X99065000Y-95260000D03*
X101605000Y-95260000D03*
X101605000Y-87640000D03*
X99065000Y-87640000D03*
X96525000Y-87640000D03*
X93985000Y-87640000D03*
X91445000Y-87640000D03*
X88905000Y-87640000D03*
X86365000Y-87640000D03*
X83825000Y-87640000D03*
X81285000Y-87640000D03*
D25*
X78745000Y-87640000D03*
%TD*%
D26*
%TO.C,U1*%
X146050000Y-85090000D03*
X143510000Y-85090000D03*
X140970000Y-85090000D03*
X138430000Y-85090000D03*
X135890000Y-85090000D03*
X133350000Y-85090000D03*
X130810000Y-85090000D03*
X128270000Y-85090000D03*
X125730000Y-85090000D03*
X123190000Y-85090000D03*
X120650000Y-85090000D03*
X118110000Y-85090000D03*
X115570000Y-85090000D03*
X113030000Y-85090000D03*
X113030000Y-100330000D03*
X115570000Y-100330000D03*
X118110000Y-100330000D03*
X120650000Y-100330000D03*
X123190000Y-100330000D03*
X125730000Y-100330000D03*
X128270000Y-100330000D03*
X130810000Y-100330000D03*
X133350000Y-100330000D03*
X135890000Y-100330000D03*
X138430000Y-100330000D03*
X140970000Y-100330000D03*
X143510000Y-100330000D03*
X146050000Y-100330000D03*
%TD*%
D13*
%TO.C,U7*%
X244475000Y-114300000D03*
X226695000Y-114300000D03*
X244475000Y-111760000D03*
X226695000Y-111760000D03*
X244475000Y-109220000D03*
X226695000Y-109220000D03*
X244475000Y-106680000D03*
X226695000Y-106680000D03*
X244475000Y-104140000D03*
X226695000Y-104140000D03*
X244475000Y-101600000D03*
X226695000Y-101600000D03*
D14*
X243840000Y-88900000D03*
X243840000Y-88900000D03*
X227330000Y-88900000D03*
X227330000Y-88900000D03*
X227330000Y-88900000D03*
X243840000Y-127000000D03*
X243840000Y-127000000D03*
X227330000Y-127000000D03*
X227330000Y-127000000D03*
%TD*%
M02*
