M48
; DRILL file {KiCad 8.0.9-8.0.9-0~ubuntu24.04.1} date 2025-07-29T22:20:16-0500
; FORMAT={-:-/ absolute / inch / decimal}
; #@! TF.CreationDate,2025-07-29T22:20:16-05:00
; #@! TF.GenerationSoftware,Kicad,Pcbnew,8.0.9-8.0.9-0~ubuntu24.04.1
; #@! TF.FileFunction,NonPlated,1,4,NPTH
FMAT,2
INCH
; #@! TA.AperFunction,NonPlated,NPTH,ComponentDrill
T1C0.0866
; #@! TA.AperFunction,NonPlated,NPTH,ComponentDrill
T2C0.1000
; #@! TA.AperFunction,NonPlated,NPTH,ComponentDrill
T3C0.1181
; #@! TA.AperFunction,NonPlated,NPTH,ComponentDrill
T4C0.1260
; #@! TA.AperFunction,NonPlated,NPTH,ComponentDrill
T5C0.1300
%
G90
G05
T1
X8.95Y-4.7
X8.95Y-5.5
X9.75Y-4.7
X9.75Y-5.5
T2
X9.055Y-2.3
X9.505Y-1.7
T3
X3.2976Y-1.82
X3.2976Y-5.5995
X4.4Y-1.82
X4.4Y-5.5995
X4.7Y-1.82
X4.7Y-5.5995
X5.8024Y-1.82
X5.8024Y-5.5995
X6.0976Y-1.82
X6.0976Y-5.5995
X7.2Y-1.82
X7.2Y-5.5995
X7.5Y-1.82
X7.5Y-5.5995
X8.6024Y-1.82
X8.6024Y-5.5995
T4
X2.15Y-1.4
X2.15Y-5.95
X9.65Y-1.4
X9.65Y-5.95
T5
X6.75Y-3.101
X6.75Y-4.2
X8.15Y-3.101
X8.15Y-4.2
M30
