M48
; DRILL file {KiCad 8.0.9-8.0.9-0~ubuntu24.04.1} date 2025-07-29T22:20:16-0500
; FORMAT={-:-/ absolute / inch / decimal}
; #@! TF.CreationDate,2025-07-29T22:20:16-05:00
; #@! TF.GenerationSoftware,Kicad,Pcbnew,8.0.9-8.0.9-0~ubuntu24.04.1
; #@! TF.FileFunction,Plated,1,4,PTH
FMAT,2
INCH
; #@! TA.AperFunction,Plated,PTH,ViaDrill
T1C0.0200
; #@! TA.AperFunction,Plated,PTH,ComponentDrill
T2C0.0315
; #@! TA.AperFunction,Plated,PTH,ComponentDrill
T3C0.0350
; #@! TA.AperFunction,Plated,PTH,ComponentDrill
T4C0.0394
; #@! TA.AperFunction,Plated,PTH,ComponentDrill
T5C0.0400
; #@! TA.AperFunction,Plated,PTH,ComponentDrill
T6C0.0433
; #@! TA.AperFunction,Plated,PTH,ComponentDrill
T7C0.0984
%
G90
G05
T1
X5.45Y-3.55
T2
X3.1002Y-3.4504
X3.1002Y-3.7504
X3.2002Y-3.4504
X3.2002Y-3.7504
X3.3002Y-3.4504
X3.3002Y-3.7504
X3.4002Y-3.4504
X3.4002Y-3.7504
X3.5002Y-3.4504
X3.5002Y-3.7504
X3.6002Y-3.4504
X3.6002Y-3.7504
X3.7002Y-3.4504
X3.7002Y-3.7504
X3.8002Y-3.4504
X3.8002Y-3.7504
X3.9002Y-3.4504
X3.9002Y-3.7504
X4.0002Y-3.4504
X4.0002Y-3.7504
T3
X3.5071Y-5.5192
X3.5071Y-5.6192
X3.6071Y-5.5192
X3.6071Y-5.6192
X3.7071Y-5.5192
X3.7071Y-5.6192
X3.8071Y-5.5192
X3.8071Y-5.6192
X3.9071Y-5.5192
X3.9071Y-5.6192
X4.0071Y-5.5192
X4.0071Y-5.6192
X4.1071Y-5.6192
X4.1075Y-5.5192
X4.2071Y-5.5192
X4.2071Y-5.6192
X4.9094Y-5.5192
X4.9094Y-5.6192
X5.0094Y-5.5192
X5.0094Y-5.6192
X5.1094Y-5.5192
X5.1094Y-5.6192
X5.2094Y-5.5192
X5.2094Y-5.6192
X5.3094Y-5.5192
X5.3094Y-5.6192
X5.4094Y-5.5192
X5.4094Y-5.6192
X5.5094Y-5.6192
X5.5098Y-5.5192
X5.6094Y-5.5192
X5.6094Y-5.6192
X6.3071Y-5.5192
X6.3071Y-5.6192
X6.4071Y-5.5192
X6.4071Y-5.6192
X6.5071Y-5.5192
X6.5071Y-5.6192
X6.6071Y-5.5192
X6.6071Y-5.6192
X6.7071Y-5.5192
X6.7071Y-5.6192
X6.8071Y-5.5192
X6.8071Y-5.6192
X6.9071Y-5.6192
X6.9075Y-5.5192
X7.0071Y-5.5192
X7.0071Y-5.6192
X7.7094Y-5.5192
X7.7094Y-5.6192
X7.8094Y-5.5192
X7.8094Y-5.6192
X7.9094Y-5.5192
X7.9094Y-5.6192
X8.0094Y-5.5192
X8.0094Y-5.6192
X8.1094Y-5.5192
X8.1094Y-5.6192
X8.2094Y-5.5192
X8.2094Y-5.6192
X8.3094Y-5.6192
X8.3098Y-5.5192
X8.4094Y-5.5192
X8.4094Y-5.6192
T4
X2.3976Y-2.3774
X2.4Y-5.025
X2.4976Y-2.3774
X2.5Y-5.025
X2.5976Y-2.3774
X2.6Y-5.025
X2.6976Y-2.3774
X2.7Y-5.025
X2.7976Y-2.3774
X2.8Y-5.025
X8.91Y-2.79
X8.91Y-2.9278
X8.925Y-4.0
X8.925Y-4.1
X8.925Y-4.2
X8.925Y-4.3
X8.925Y-4.4
X8.925Y-4.5
X8.93Y-1.8
X8.93Y-1.9
X8.93Y-2.0
X8.93Y-2.1
X8.93Y-2.2
X9.625Y-4.0
X9.625Y-4.1
X9.625Y-4.2
X9.625Y-4.3
X9.625Y-4.4
X9.625Y-4.5
X9.63Y-1.8
X9.63Y-1.9
X9.63Y-2.0
X9.63Y-2.1
X9.63Y-2.2
T5
X6.9Y-3.051
X7.0Y-3.051
X7.0Y-4.25
X7.1Y-3.051
X7.1Y-4.25
X7.2Y-3.051
X7.2Y-4.25
X7.3Y-3.051
X7.3Y-4.25
X7.4Y-3.051
X7.4Y-4.25
X7.5Y-3.051
X7.5Y-4.25
X7.6Y-4.25
X7.7Y-4.25
X8.65Y-4.755
X8.65Y-4.855
X8.65Y-4.955
X8.65Y-5.055
X8.65Y-5.155
X8.65Y-5.255
X8.65Y-5.355
X8.65Y-5.455
T6
X4.45Y-3.35
X4.45Y-3.95
X4.55Y-3.35
X4.55Y-3.95
X4.65Y-3.35
X4.65Y-3.95
X4.75Y-3.35
X4.75Y-3.95
X4.85Y-3.35
X4.85Y-3.95
X4.95Y-3.35
X4.95Y-3.95
X5.05Y-3.35
X5.05Y-3.95
X5.15Y-3.35
X5.15Y-3.95
X5.25Y-3.35
X5.25Y-3.95
X5.35Y-3.35
X5.35Y-3.95
X5.45Y-3.35
X5.45Y-3.95
X5.55Y-3.35
X5.55Y-3.95
X5.65Y-3.35
X5.65Y-3.95
X5.75Y-3.35
X5.75Y-3.95
T7
X8.86Y-2.5609
X8.86Y-3.1609
X8.95Y-3.5
X8.95Y-3.5
X8.95Y-3.5
X8.95Y-5.0
X8.95Y-5.0
X9.6Y-3.5
X9.6Y-3.5
X9.6Y-5.0
X9.6Y-5.0
X9.755Y-2.5659
X9.755Y-3.1659
M30
